# AST/ASF file generated using VICON BodyLanguage
# -----------------------------------------------
:version 1.10
:name VICON
:units
  mass 1.0
  length 0.45
  angle deg
:documentation
   .ast/.asf automatically generated from VICON data using
   VICON BodyBuilder and BodyLanguage model FoxedUp or BRILLIANT.MOD
:root
   order TX TY TZ RX RY RZ
   axis XYZ
   position 0 0 0  
   orientation 0 0 0 
:bonedata
  begin
     id 1 
     name lhipjoint
     direction 0.547975 -0.797114 0.253638 
     length 2.36201 
     axis 0 0 0  XYZ
  end
  begin
     id 2 
     name lfemur
     direction 0.34202 -0.939693 0  
     length 7.69075  
     axis 0 0 20  XYZ
    dof rx ry rz
    limits (-160.0 20.0)
           (-70.0 70.0)
           (-60.0 70.0)
  end
  begin
     id 3 
     name ltibia
     direction 0.34202 -0.939693 0   
     length 7.91399   
     axis 0 0 20   XYZ
    dof rx
    limits (-10.0 170.0)
  end
  begin
     id 4 
     name lfoot
     direction 0.0705293 -0.193778 0.978507   
     length 2.13618   
     axis -90 7.62852e-016 20   XYZ
    dof rx rz
    limits (-45.0 90.0)
           (-70.0 20.0)
  end
  begin
     id 5 
     name ltoes
     direction 1.53592e-011 -4.21925e-011 1   
     length 1.07518   
     axis -90 7.62852e-016 20   XYZ
    dof rx
    limits (-90.0 20.0)
  end
  begin
     id 6 
     name rhipjoint
     direction -0.57 -0.782963 0.249136   
     length 2.4047  
     axis 0 0 0  XYZ 
  end
  begin
     id 7 
     name rfemur
     direction -0.34202 -0.939693 0   
     length 7.51486   
     axis 0 0 -20   XYZ
    dof rx ry rz
    limits (-160.0 20.0)
           (-70.0 70.0)
           (-70.0 60.0)
  end
  begin
     id 8 
     name rtibia
     direction -0.34202 -0.939693 0   
     length 8.08317   
     axis 0 0 -20   XYZ
    dof rx
    limits (-10.0 170.0)
 end
 begin
     id 9 
     name rfoot
     direction -0.104954 -0.281256 0.953876   
     length 2.30343  
     axis -90 -7.62852e-016 -20   XYZ
    dof rx rz
    limits (-45.0 90.0)
           (-20.0 70.0)
  end
  begin
     id 10 
     name rtoes
     direction -1.53556e-011 -4.21922e-011 1   
     length 1.14803   
     axis -90 -7.62852e-016 -20   XYZ
    dof rx
    limits (-90.0 20.0)
  end
  begin
     id 11 
     name lowerback
     direction -0.0152855 0.99353 -0.11254   
     length 2.05311   
     axis 0 0 0   XYZ
    dof rx ry rz
    limits (-20.0 45.0)
           (-30.0 30.0)
           (-30.0 30.0)
  end
  begin
     id 12 
     name upperback
     direction -0.00157509 0.999443 -0.033332   
     length 2.06353   
     axis 0 0 0   XYZ
    dof rx ry rz
    limits (-20.0 45.0)
           (-30.0 30.0)
           (-30.0 30.0)
  end
  begin
     id 13 
     name thorax
     direction 0.00577788 0.999804 0.0189484   
     length 2.08472   
     axis 0 0 0   XYZ
    dof rx ry rz
    limits (-20.0 45.0)
           (-30.0 30.0)
           (-30.0 30.0)
  end
  begin
     id 14 
     name lowerneck
     direction -1.09301e-005 0.994719 0.10264   
     length 1.76249   
     axis 0 0 0   XYZ
    dof rx ry rz
    limits (-20.0 45.0)
           (-30.0 30.0)
           (-30.0 30.0)
  end
  begin
     id 15 
     name upperneck
     direction 0.0495018 0.988526 -0.142706   
     length 1.77897   
     axis 0 0 0   XYZ
    dof rx ry rz
    limits (-20.0 45.0)
           (-30.0 30.0)
           (-30.0 30.0)
  end
  begin
     id 16
     name head
     direction 0.0142736 0.998114 -0.0597101  
     length 1.78934  
     axis 0 0 0   XYZ
    dof rx ry rz
    limits (-20.0 45.0)
           (-30.0 30.0)
           (-30.0 30.0)
  end
  begin
     id 17 
     name lclavicle
     direction 0.918111 0.396107 -0.0130883  
     length 3.37276  
     axis 0 0 0   XYZ
    dof ry rz
    limits (-20.0 10.0)
           (0.0 20.0)
  end
  begin
     id 18 
     name lhumerus
     direction 1 -4.48975e-011 -3.26108e-027   
     length 5.34298   
     axis 180 -30 -90   XYZ
    dof rx ry rz
    limits (-60.0 90.0)
           (-90.0 90.0)
           (-90.0 90.0)
  end
  begin
     id 19
     name lradius
     direction 1 -4.48964e-011 -8.84413e-028   
     length 3.67262   
     axis 180 -30 -90   XYZ
    dof rx
    limits (-10.0 170.0)
  end
  begin
     id 20
     name lwrist
     direction 1 -4.48991e-011 -1.24264e-027   
     length 1.83631   
     axis -2.17013e-015 90 90   XYZ
    dof ry
    limits (-180.0 0.0)
 end
  begin
     id 21 
     name lhand
     direction 1 -4.48855e-011 -2.48528e-027   
     length 0.599298   
     axis 1.58582e-015 90 90   XYZ
    dof rx rz
    limits (-90.0 90.0)
           (-45.0 45.0)
  end
  begin
     id 22 
     name lfingers
     direction 1 -4.48811e-011 -4.97056e-027   
     length 0.48317   
     axis 3.17164e-015 90 90   XYZ
    dof rx
    limits (0.0 90.0)
  end
  begin
     id 23
     name lthumb
     direction 0.707107 -6.34882e-011 0.707107   
     length 0.693738   
     axis -90 45 2.85299e-015   XYZ
    dof rx rz
    limits (-45.0 45.0)
           (-45.0 45.0)
  end
  begin
     id 24 
     name rclavicle
     direction -0.920511 0.384752 -0.0680135   
     length 3.43787  
     axis 0 0 0   XYZ 
    dof ry rz
    limits (-10.0 20.0)
           (-20.0 0.0)
  end
  begin
     id 25 
     name rhumerus
     direction -0.999976 -0.00330524 0.00603274  
     length 5.5498   
     axis 180 30 90   XYZ
    dof rx ry rz
    limits (-90.0 60.0)
           (-90.0 90.0)
           (-90.0 90.0)
  end
  begin
     id 26 
     name rradius
     direction -1 -4.48967e-011 8.62438e-027   
     length 3.69401   
     axis 180 30 90   XYZ
    dof rx
    limits (-10.0 170.0)
  end
  begin
     id 27 
     name rwrist
     direction -1 -4.4897e-011 9.54866e-027   
     length 1.84701   
     axis -7.69462e-015 -90 -90   XYZ
    dof ry
    limits (-180.0 0.0)
  end
  begin
     id 28
     name rhand
     direction -1 -4.48982e-011 1.90973e-026   
     length 0.638113   
     axis -1.21857e-014 -90 -90   XYZ
    dof rx rz
    limits (-90.0 90.0)
           (-45.0 45.0)
  end
  begin
     id 29
     name rfingers
     direction -1 -4.48936e-011 3.81946e-026   
     length 0.514463   
     axis -2.43714e-014 -90 -90   XYZ
    dof rx
    limits (0.0 90.0)
  end
  begin
     id 30
     name rthumb
     direction -0.707107 -6.34942e-011 0.707107   
     length 0.738669   
     axis -90 -45 -2.85299e-015   XYZ
    dof rx rz
    limits (-45.0 45.0)
           (-45.0 45.0)
  end
:hierarchy
  begin
    root lhipjoint rhipjoint lowerback
    lhipjoint lfemur
    lfemur ltibia
    ltibia lfoot
    lfoot ltoes
    rhipjoint rfemur
    rfemur rtibia
    rtibia rfoot
    rfoot rtoes
    lowerback upperback
    upperback thorax
    thorax lowerneck lclavicle rclavicle
    lowerneck upperneck
    upperneck head
    lclavicle lhumerus
    lhumerus lradius
    lradius lwrist
    lwrist lhand lthumb
    lhand lfingers
    rclavicle rhumerus
    rhumerus rradius
    rradius rwrist
    rwrist rhand rthumb
    rhand rfingers
  end

#!OML:ASF F:\twosubjects\two\Thursday\Session 1\Rory.ASF
:FULLY-SPECIFIED
:DEGREES
157
root 10.5126 12.5579 12.8026 -154.362 -40.7322 168.389
lowerback 32.9737 -2.46804 -5.05262
upperback 6.97277 -6.12187 0.311538
thorax -8.65912 -3.32246 5.30249
lowerneck -4.62995 -15.3382 -14.4079
upperneck -13.1724 -19.8657 31.0762
head 2.04052 -10.9284 10.6355
rclavicle -2.24627e-014 1.30204e-014
rhumerus 48.1298 -15.1351 -75.1382
rradius 108.836
rwrist -36.7397
rhand -8.90906 20.3804
rfingers 7.12502
rthumb 17.034 -8.89276
lclavicle -2.24627e-014 1.30204e-014
lhumerus 5.24641 -57.2194 82.5738
lradius 104.534
lwrist -4.24177
lhand -27.8578 75.0665
lfingers 7.12502
lthumb -1.24858 -105.043
rfemur -13.3886 -0.903589 -8.7314
rtibia 87.3567
rfoot -22.401 1.17721
rtoes -40.6905
lfemur -92.1425 11.03 -17.0244
ltibia 80.0161
lfoot 1.35204 -20.3722
ltoes 7.2488
158
root 10.4977 12.5101 12.8309 -153.817 -40.9513 168.035
lowerback 32.8798 -2.68802 -4.4808
upperback 6.73619 -6.17714 0.13521
thorax -8.94802 -3.31635 4.84599
lowerneck -4.89083 -15.5243 -13.9703
upperneck -13.0209 -20.1071 30.5694
head 2.04923 -11.0067 10.3355
rclavicle 1.26228e-014 2.87244e-014
rhumerus 47.8892 -16.0649 -75.1951
rradius 108.939
rwrist -37.3667
rhand -7.64475 11.7262
rfingers 7.12502
rthumb 18.2506 -17.4376
lclavicle 1.26228e-014 2.87244e-014
lhumerus 5.37898 -57.7904 82.4802
lradius 104.753
lwrist -4.0089
lhand -27.6571 75.0669
lfingers 7.12502
lthumb -1.05471 -105.044
rfemur -13.6587 -1.53058 -9.28172
rtibia 87.4657
rfoot -22.4054 0.725651
rtoes -42.3433
lfemur -92.9759 10.7805 -17.5944
ltibia 80.2187
lfoot 1.238 -20.3641
ltoes 5.10847
159
root 10.4871 12.5172 12.8201 -153.761 -41.2541 168.453
lowerback 32.368 -2.56532 -3.65386
upperback 6.68458 -5.69479 0.0328216
thorax -8.92816 -3.08988 4.10723
lowerneck -4.33598 -15.7605 -12.8588
upperneck -13.6827 -20.3662 30.2855
head 1.65096 -11.2518 10.1212
rclavicle 6.10269e-014 -1.07344e-014
rhumerus 47.3294 -17.8383 -75.0165
rradius 109.025
rwrist -37.7157
rhand -6.84409 9.85647
rfingers 7.12502
rthumb 19.0208 -19.2335
lclavicle 6.10269e-014 -1.07344e-014
lhumerus 6.21361 -59.3418 81.671
lradius 104.643
lwrist -3.58468
lhand -27.7683 75.6455
lfingers 7.12502
lthumb -1.1621 -105.622
rfemur -14.0947 -1.89238 -9.07657
rtibia 87.5389
rfoot -22.2337 2.75131
rtoes -40.0305
lfemur -93.5368 10.8473 -17.4186
ltibia 80.4107
lfoot 1.55939 -20.6806
ltoes 8.21989
160
root 10.494 12.5202 12.7713 -154.372 -41.1991 168.867
lowerback 32.4088 -2.06559 -3.70422
upperback 6.79704 -5.09146 0.0750649
thorax -8.85946 -2.82099 3.9638
lowerneck -3.06969 -15.8385 -11.8546
upperneck -14.909 -20.3428 30.209
head 0.958677 -11.4594 10.1466
rclavicle 5.28084e-014 2.60159e-014
rhumerus 46.8344 -19.1441 -74.9355
rradius 108.961
rwrist -37.5671
rhand -5.18129 12.4606
rfingers 7.12502
rthumb 20.6192 -16.4642
lclavicle 5.28084e-014 2.60159e-014
lhumerus 6.74588 -60.4549 80.9549
lradius 104.43
lwrist -3.17883
lhand -27.9784 75.9285
lfingers 7.12502
lthumb -1.36507 -105.904
rfemur -13.7938 -1.1639 -8.52625
rtibia 87.5499
rfoot -21.7371 3.53184
rtoes -39.0898
lfemur -93.1862 11.2681 -17.0166
ltibia 80.6982
lfoot 1.72766 -21.0889
ltoes 11.5859
161
root 10.5127 12.5 12.7089 -154.808 -40.6814 168.573
lowerback 32.7639 -1.54506 -4.9269
upperback 6.90483 -4.88558 0.198495
thorax -8.79539 -2.72988 4.6803
lowerneck -3.57714 -15.9044 -12.1292
upperneck -14.4389 -20.4634 29.8584
head 1.17905 -11.4129 9.98247
rclavicle -5.889e-014 1.22501e-013
rhumerus 46.6001 -19.0655 -74.9663
rradius 109.639
rwrist -37.2935
rhand -4.46048 14.1548
rfingers 7.12502
rthumb 21.3117 -14.6934
lclavicle -5.889e-014 1.22501e-013
lhumerus 6.50969 -60.2087 80.978
lradius 104.421
lwrist -2.96063
lhand -28.1868 74.0975
lfingers 7.12502
lthumb -1.56636 -104.071
rfemur -13.0298 0.288114 -8.23382
rtibia 87.4642
rfoot -21.2772 1.85378
rtoes -41.5956
lfemur -92.4747 11.8049 -17.1272
ltibia 81.0412
lfoot 1.3742 -21.3755
ltoes 10.7652
162
root 10.5048 12.5033 12.687 -154.669 -40.3809 168.088
lowerback 32.7127 -1.54953 -5.41072
upperback 6.95059 -5.07115 0.130503
thorax -8.67434 -2.82131 4.9229
lowerneck -4.05106 -15.87 -12.3744
upperneck -14.0525 -20.4516 29.7107
head 1.37091 -11.3305 9.90882
rclavicle 9.40251e-014 8.95773e-015
rhumerus 46.4813 -18.5204 -74.8593
rradius 109.923
rwrist -36.8993
rhand -4.47684 12.2001
rfingers 7.12502
rthumb 21.296 -16.6498
lclavicle 9.40251e-014 8.95773e-015
lhumerus 6.66703 -59.7412 80.7585
lradius 104.644
lwrist -2.75305
lhand -28.4128 73.1443
lfingers 7.12502
lthumb -1.78457 -103.117
rfemur -12.8553 0.332946 -8.84509
rtibia 87.4379
rfoot -21.3622 2.14039
rtoes -41.3254
lfemur -92.2602 11.7898 -17.4522
ltibia 81.2883
lfoot 0.89184 -21.2576
ltoes 9.26113
163
root 10.4829 12.5259 12.6855 -154.26 -40.1186 167.467
lowerback 32.5148 -1.65847 -5.53497
upperback 6.99854 -5.26601 -0.0745702
thorax -8.53091 -2.91974 4.82599
lowerneck -4.39544 -15.8552 -12.3477
upperneck -13.863 -20.4509 29.6526
head 1.46954 -11.2957 9.8463
rclavicle 7.23079e-014 3.0998e-014
rhumerus 46.3066 -18.1624 -74.5922
rradius 110.159
rwrist -36.3588
rhand -3.50805 10.9022
rfingers 7.12502
rthumb 22.2263 -17.8399
lclavicle 7.23079e-014 3.0998e-014
lhumerus 7.51401 -59.4609 80.248
lradius 104.84
lwrist -2.50212
lhand -28.2506 73.7186
lfingers 7.12502
lthumb -1.62792 -103.692
rfemur -13.0302 -0.311958 -10.0978
rtibia 87.5339
rfoot -21.733 4.4531
rtoes -37.7363
lfemur -92.0952 11.4121 -17.8479
ltibia 81.4148
lfoot 0.303541 -20.7866
ltoes 8.15158
164
root 10.4891 12.5307 12.6494 -154.289 -39.5963 167.201
lowerback 32.4277 -1.36526 -6.25985
upperback 7.08442 -5.14597 -0.0476285
thorax -8.35258 -2.87468 5.18476
lowerneck -4.46637 -15.8084 -12.6783
upperneck -13.8051 -20.3936 29.852
head 1.55535 -11.2532 9.95299
rclavicle 6.76241e-014 2.18539e-014
rhumerus 46.0228 -17.8236 -74.0873
rradius 110.488
rwrist -35.9165
rhand -2.78749 11.0212
rfingers 7.12502
rthumb 22.9179 -17.6367
lclavicle 6.76241e-014 2.18539e-014
lhumerus 7.79337 -59.0557 80.3582
lradius 104.637
lwrist -2.40292
lhand -28.1986 73.4451
lfingers 7.12502
lthumb -1.57769 -103.419
rfemur -13.0469 -0.0454902 -10.5434
rtibia 87.6964
rfoot -21.8267 4.96373
rtoes -36.4478
lfemur -91.7719 11.8314 -18.1932
ltibia 81.6039
lfoot 0.234235 -20.8622
ltoes 9.98266
165
root 10.4874 12.5161 12.6318 -154.581 -39.5997 167.759
lowerback 32.1136 -1.4316 -5.87909
upperback 7.12394 -5.05624 0.106927
thorax -8.21371 -2.84285 5.0991
lowerneck -4.50471 -15.7701 -12.87
upperneck -13.8277 -20.3373 29.9559
head 1.58219 -11.222 10.0189
rclavicle -4.52546e-014 -3.48423e-014
rhumerus 45.8489 -17.4755 -73.4848
rradius 110.743
rwrist -35.5683
rhand -1.55569 11.8136
rfingers 7.12502
rthumb 24.0995 -16.6929
lclavicle -4.52546e-014 -3.48423e-014
lhumerus 7.5041 -58.6888 80.5279
lradius 104.189
lwrist -2.26922
lhand -28.8443 72.5281
lfingers 7.12502
lthumb -2.20132 -102.497
rfemur -13.1745 0.186809 -9.88782
rtibia 87.7789
rfoot -21.7681 4.32546
rtoes -37.4071
lfemur -92.0915 12.3188 -17.9893
ltibia 81.8893
lfoot 0.956183 -20.9964
ltoes 13.8893
166
root 10.4617 12.4952 12.6515 -154.591 -39.9058 168.199
lowerback 31.4793 -1.85405 -4.75506
upperback 7.46629 -5.15044 -0.0696597
thorax -8.33623 -2.86811 4.65001
lowerneck -4.56309 -15.7708 -12.6834
upperneck -13.8036 -20.3346 29.7533
head 1.54548 -11.2123 9.92563
rclavicle 6.99101e-014 4.008e-014
rhumerus 45.5828 -17.1554 -73.0137
rradius 111.029
rwrist -35.1319
rhand -0.348082 11.8902
rfingers 7.12502
rthumb 25.2569 -16.4581
lclavicle 6.99101e-014 4.008e-014
lhumerus 7.74059 -58.524 80.1393
lradius 103.971
lwrist -1.87809
lhand -29.176 72.9652
lfingers 7.12502
lthumb -2.52164 -102.93
rfemur -13.3973 -0.17461 -9.56262
rtibia 87.7196
rfoot -21.5558 4.24211
rtoes -37.7873
lfemur -92.7013 12.0787 -17.6055
ltibia 82.1797
lfoot 1.27695 -20.5958
ltoes 14.7235
167
root 10.447 12.485 12.6504 -154.556 -39.8281 168.104
lowerback 31.3848 -1.9476 -4.56749
upperback 7.45228 -5.2042 -0.0976132
thorax -8.32178 -2.89461 4.52386
lowerneck -4.70913 -15.8163 -12.6803
upperneck -13.5984 -20.4185 29.7488
head 1.64352 -11.2244 9.88525
rclavicle -7.0991e-014 -2.31584e-014
rhumerus 45.2279 -16.8249 -72.5652
rradius 111.449
rwrist -34.8315
rhand 0.739843 10.971
rfingers 7.12502
rthumb 26.2988 -17.226
lclavicle -7.0991e-014 -2.31584e-014
lhumerus 8.49173 -58.4442 79.5768
lradius 104.157
lwrist -1.47653
lhand -28.4142 73.7589
lfingers 7.12502
lthumb -1.78596 -103.731
rfemur -13.326 -0.00861602 -9.58826
rtibia 87.602
rfoot -21.1848 3.98999
rtoes -37.5572
lfemur -92.7532 11.7354 -17.3812
ltibia 82.4447
lfoot 0.733242 -20.0381
ltoes 14.3717
